<?xml version="1.0" encoding="UTF-8"?>
<svg id="Layer_1" xmlns="http://www.w3.org/2000/svg" version="1.1" viewBox="0 0 512 512">
  <!-- Generator: Adobe Illustrator 29.3.1, SVG Export Plug-In . SVG Version: 2.1.0 Build 151)  -->
  <defs>
    <style>
      .st0 {
        fill: #fff;
      }

      .st1 {
        fill: #f7931a;
      }
    </style>
  </defs>
  <rect class="st1" x="18.4" y="18.4" width="475.1" height="475.1" rx="76.8" ry="76.8"/>
  <path class="st0" d="M381.3,218.9c5.6-39.9-23.2-59.4-63.1-73.3l13-51-31.6-8.4-12.1,50.1-26-6.5,13-50.1-32.5-8.4-12.1,52-20.4-4.6-43.6-11.1-7.4,33.4,22.3,5.6c13,3.7,15.8,13,13.9,19.5l-13.9,58.5,2.8.9-2.8-.9-20.4,82.6c-1.9,4.6-5.6,10.2-14.8,7.4l-22.3-5.6-15.8,36.2,63.1,15.8-12.1,52.9,30.6,7.4,13-51,24.1,5.6-12.1,51,31.6,8.4,13-52c53.8,10.2,94.7,5.6,111.4-42.7,13-39-.9-61.2-29.7-76.1,20.4-4.6,36.2-18.6,40.8-45.5ZM309.8,319.1c-10.2,38-76.1,18.6-97.4,13l17.6-69.6c21.3,5.6,90,15.8,79.8,56.6ZM318.2,217c-8.4,36.2-62.2,18.6-80.7,13.9l15.8-63.1c18.6,4.6,75.2,13,65,49.2Z"/>
</svg>