<?xml version="1.0" encoding="UTF-8"?>
<svg id="Layer_1" xmlns="http://www.w3.org/2000/svg" version="1.1" viewBox="0 0 800 800">
  <!-- Generator: Adobe Illustrator 29.3.1, SVG Export Plug-In . SVG Version: 2.1.0 Build 151)  -->
  <defs>
    <style>
      .st0 {
        fill: #fff;
      }

      .st1 {
        fill: #df146e;
      }
    </style>
  </defs>
  <path class="st1" d="M732.8,767.5H67c-19.9,0-36.2-16.4-36.2-36.3V68.7c0-20,16.3-36.3,36.2-36.3h666c19.9,0,36.3,16.3,36.3,36.3v662.5c0,19.9-16.3,36.3-36.3,36.3"/>
  <path class="st0" d="M560.2,435l-234.2-37.2,31.7,138.2,202.4-101h.1ZM569.7,423.6l-184-255.8-60.1,217.5,244.2,38.2h-.1ZM314.1,382.4L121.3,136l252.6,30.2-59.7,216.2h-.1ZM220.5,280.4l-107.1-100.9h28.1l78.9,100.9h.1ZM627.1,299.5l-45.3,122.9-73.4-101.5,118.7-21.3h0ZM386.4,534.3l177.7-71.4,7.6-22.7-185.3,94.1h0ZM238.1,664l76.1-267.2,38.6,173.9-114.7,93.3ZM638,300.3l-18.8,50.8,67.3-1.2-48.7-49.6h.1Z"/>
</svg>