<?xml version="1.0" encoding="UTF-8"?>
<svg id="_x32_" xmlns="http://www.w3.org/2000/svg" version="1.1" xmlns:xlink="http://www.w3.org/1999/xlink" viewBox="0 0 800 800">
  <!-- Generator: Adobe Illustrator 29.3.1, SVG Export Plug-In . SVG Version: 2.1.0 Build 151)  -->
  <defs>
    <style>
      .st0 {
        fill: #0c0;
      }
    </style>
  </defs>
  <path class="st0" d="M594.7,602.4c-23.3-18.6-95.8-54.3-113.7-58.4-17.9-4.2-39.5,13.1-45.4,34.6-6,21.5-17.2,19.4-17.2,19.4,0,0-43-15.8-121.7-94.2-78.7-78.4-94.6-121.4-94.6-121.4,0,0-2.1-11.2,19.3-17.2,21.4-6,38.6-27.7,34.4-45.6-4.2-17.9-40.2-90.3-58.9-113.5-18.7-23.2-54.8-11.2-62.7-5.4-8,5.8-91.9,59.1-66.7,157.3,25.3,98.2,79.5,176.8,139,236.2,59.6,59.4,138.4,113.3,236.7,138.2,98.3,24.9,151.3-59.2,157.1-67.2,5.7-8,17.6-44.1-5.7-62.7Z"/>
  <path class="st0" d="M388.2,312c13,6.4,33.8,18.3,57.8,42.3,24,24,35.9,44.8,42.3,57.8,6.7,13.7,11.7,16.5,15.7,15.5,6.6-1.5,8.8-3.3,9.4-17.1.5-11.8-5.1-46.9-40.9-82.7-35.8-35.8-70.9-41.4-82.7-40.9-13.8.6-15.6,2.8-17.1,9.4-.9,4,1.8,9,15.5,15.7Z"/>
  <path class="st0" d="M409.2,173.8c-16.9,0-21.1,10.4-21.6,14.5-1,8.2,5,14.8,17.5,18.4,14.3,4.1,71.1,22.3,118.7,69.9,47.6,47.6,65.8,104.3,69.9,118.7,3.6,12.5,10.2,18.5,18.4,17.5,4.1-.5,14.5-4.8,14.5-21.6,0-13.4-8.1-83.3-71.1-146.2-62.9-62.9-132.9-71.1-146.2-71.1Z"/>
  <path class="st0" d="M638.8,161.5c-90.2-90.2-185.3-97.9-201.7-98.4-20-.5-27.9,8.4-27.9,17.6,0,7.8,8,15.9,19.9,18.9,17.9,4.6,88.9,15.8,172.2,99.1,83.4,83.4,94.5,154.3,99.1,172.3,3.1,11.9,11.1,19.9,18.9,19.9s18.1-7.9,17.6-27.9c-.4-16.4-8.2-111.5-98.3-201.7Z"/>
</svg>