<?xml version="1.0" encoding="UTF-8"?>
<svg id="Layer_1" xmlns="http://www.w3.org/2000/svg" version="1.1" viewBox="0 0 800 800">
  <!-- Generator: Adobe Illustrator 29.3.1, SVG Export Plug-In . SVG Version: 2.1.0 Build 151)  -->
  <defs>
    <style>
      .st0 {
        fill: #007de9;
      }
    </style>
  </defs>
  <path class="st0" d="M774.9,402.3c0-207-167.9-374.9-374.9-374.9S25.1,195.3,25.1,402.3s136,341,314.1,370l2.2.3v-261.9h-95.2v-108.4h95.2v-82.6c-.5-4.2-.7-9-.7-13.9,0-73.1,59.2-132.3,132.3-132.3s7,.2,10.5.4h-.4c30,.4,59,3.1,87.3,7.8l-3.4-.5v92.2h-47.3c-2.2-.3-4.6-.5-7.1-.5-29.9,0-54.2,24.3-54.2,54.2s0,3.4.2,5v-.2s0,70.3,0,70.3h104l-16.6,108.4h-87.3v261.9c180.3-29.3,316.3-184,316.4-370.3h0Z"/>
</svg>