<?xml version="1.0" encoding="UTF-8"?>
<svg id="Layer_1" xmlns="http://www.w3.org/2000/svg" version="1.1" viewBox="0 0 800 800">
  <!-- Generator: Adobe Illustrator 29.3.1, SVG Export Plug-In . SVG Version: 2.1.0 Build 151)  -->
  <defs>
    <style>
      .st0 {
        fill: #f69220;
      }

      .st1 {
        fill: #ec1c24;
      }

      .st2 {
        fill: #ea2227;
      }
    </style>
  </defs>
  <g id="g134">
    <path id="path72" class="st2" d="M705.9,424.2c0,9.1,0,19.2-1,28.3-3,40.4-13.1,77.7-29.3,113.1-6.1,14.1-14.1,27.3-22.2,40.4-60.6,95.9-166.6,158.5-287.7,158.5s-101-12.1-145.4-32.3c-115.1-54.5-194.8-172.6-194.8-307.9S102.2,174.9,214.2,119.3c-9.1,11.1-17.2,24.2-24.2,36.3-1,1-1,2-2,3-4,4-9.1,7.1-13.1,11.1l-15.1,15.1-3,3c-1,1-2,2-3,4-2,2-4,4-5,6.1-3,4-7.1,8.1-10.1,13.1-14.1,18.2-26.2,39.4-35.3,60.6l-3,6.1c-1,3-2,5-3,8.1,0,1-1,3-1,4-1,4-3,8.1-4,12.1-1,3-2,5-2,8.1s-1,3-1,4c-1,3-1,5-2,8.1-2,8.1-4,17.2-5,26.2,0,2-1,4-1,7.1s0,3-1,5c0,3,0,5-1,8.1v22.2c0,92.9,42.4,175.7,109,230.2,51.5,42.4,117.1,67.6,187.8,67.6s125.2-21.2,173.6-56.5c35.3-26.2,65.6-59.6,86.8-97.9,3-5,5-10.1,8.1-15.1,17.2-35.3,27.3-75.7,28.3-117.1v-10.1c0-10.1,0-19.2-1-28.3,1,0,1,1,1,1,5,4,9.1,8.1,13.1,12.1,4-7.1,8.1-14.1,13.1-20.2,3,13.1,5,26.2,6.1,39.4,1,8.1,1,18.2,1,28.3"/>
    <path id="path74" class="st0" d="M672.6,389.9v10.1c0,60.6-25.2,111.1-28.3,117.1-2,5-5,10.1-8.1,15.1-21.2,38.4-51.5,72.7-86.8,97.9-48.5,35.3-109,56.5-173.6,56.5s-137.3-25.2-187.8-67.6c-66.6-54.5-109-137.3-109-230.2v-22.2c0-3,0-5,1-8.1,0-2,0-3,1-5,0-2,1-4,1-7.1,1-9.1,3-17.2,5-26.2,1-3,1-5,2-8.1,0-1,1-3,1-4,1-3,1-5,2-8.1,1-4,3-8.1,4-12.1,0-1,1-3,1-4,1-3,2-5,3-8.1l3-6.1c9.1-21.2,21.2-42.4,35.3-60.6,3-4,7.1-8.1,10.1-13.1,2-2,3-4,5-6.1s2-2,3-4l3-3,15.1-15.1c4-4,9.1-8.1,13.1-11.1-1,1-1,2-2,3s-1,2-2,4c-17.2,35.3-28.3,75.7-32.3,120.1-1,12.1-2,24.2-2,36.3,0,155.5,90.9,281.7,203.9,281.7h11.1c16.2,0,32.3-2,47.5-6.1,76.7-21.2,132.3-90.9,132.3-173.6v-5c-1-49.5-22.2-92.9-55.5-125.2,23.2,1,45.4,4,67.6,9.1,41.4,11.1,79.8,30.3,112.1,56.5,1,0,1,1,2,1,1,12.1,2,21.2,2,31.3"/>
    <path id="path76" class="st0" d="M673.6,389.9v10.1c0,63.6-28.3,118.1-28.3,118.1-2,5-5,10.1-8.1,15.1-21.2,38.4-51.5,72.7-87.8,98.9-51.5,36.3-111.1,56.5-174.7,56.5s-136.3-24.2-188.8-67.6c-69.7-56.5-109-141.3-109-231.2s40.4-174.7,110-231.2l3-2c-1,1-1,2-2,3s-1,2-2,3c-67.6,56.5-107,139.3-107,227.2s39.4,172.6,108,229.2c52.5,43.4,119.1,66.6,187.8,66.6s122.2-19.2,172.6-55.5c35.3-25.2,65.6-59.6,86.8-97.9,3-5,5-10.1,8.1-15.1,0-1,28.3-54.5,28.3-117.1v-10.1c0-9.1,0-19.2-1-28.3v-1c1,0,1,1,2,1l1,1c1,9.1,1,18.2,1,27.3"/>
    <path id="path78" class="st2" d="M592.8,205.2s-242.3-45.4-356.4,165.6c0,0,20.2-146.4,193.8-212l-34.3-64.6s69.7-62.6,191.8-46.4l5,157.5Z"/>
    <path id="path80" class="st0" d="M292,317.2s96.9-126.2,318-93.9l-3-73.7s92.9-3,167.6,61.6l-91.9,139.3s-63.6-73.7-194.8-75.7c-53.5-1-119.1,6.1-195.9,42.4"/>
    <path id="path82" class="st0" d="M196.1,432.3S85,191,342.5,35.5l61.6,113.1s-41.4,14.1-85.8,52.5c-48.5,41.4-101,112.1-122.2,231.2"/>
    <g id="g132">
      <path id="path84" class="st1" d="M342.5,366.7s-21.2,5-20.2-6.1c0-4,2-5,4-4,0-2-4-7.1,5-10.1,3-4,6.1-8.1,7.1-10.1,1-3,3-6.1,11.1-5,8.1,2,17.2,10.1,18.2,12.1,5,0,10.1,1,8.1,2-2,1-3,3-2,3,0,0,3,2-5,2,0,2,2,2,3,3s0,2,0,2c0,0,1,4-3,3-4-2-4-3-6.1-3s-4,1-4,2,5,4-1,5c-1,1,2,2,0,3s-11.1,8.1-15.1,9.1c-4,0-5-1-5-3s2-3,5-3c1-1,1-2,0-2"/>
      <path id="path86" class="st1" d="M340.4,388.9c-2,0-8.1-4-5-6.1,3-2,17.2-11.1,20.2-12.1,3-1,7.1,3,3,6.1-3,3-18.2,12.1-18.2,12.1"/>
      <path id="path88" class="st1" d="M362.6,378.8c0-2,2-11.1,2-13.1s7.1-2,5,5c-1,8.1-7.1,10.1-7.1,8.1"/>
      <path id="path90" class="st1" d="M371.7,362.6s38.4-2,41.4,0,16.2,22.2,13.1,40.4-9.1,23.2-33.3,25.2c0-6.1-1-21.2-4-25.2-2-4-11.1-13.1-15.1-13.1,0,4-1,17.2-1,17.2,0,0-12.1,1-14.1-2v-19.2s11.1-10.1,12.1-12.1c2,1,2,7.1,16.2,6.1,1-2-15.1,0-15.1-17.2"/>
      <path id="path92" class="st1" d="M357.6,379.8s-12.1,10.1-15.1,12.1c-1,3-3,14.1,13.1,14.1,1-7.1,2-26.2,2-26.2"/>
      <path id="path94" class="st1" d="M328.3,395c-4,0-7.1-1-6.1-4,0-3,6.1-6.1,9.1-5,3,1,9.1,2,9.1,15.1,2,3,10.1,8.1,19.2,9.1,9.1,1,15.1-1,15.1,2v18.2s-11.1,0-39.4-20.2c-2-3-4-5-4-10.1s-2-5-3-5"/>
      <path id="path96" class="st1" d="M319.2,397c-5,0-18.2,11.1-8.1,16.2,3-2,5-5,5-5,0,0-2,6.1,3,8.1s3-3,6.1-3c2,3,2,4,5,4s3-8.1,0-12.1c-3-5-6.1-7.1-11.1-8.1"/>
      <path id="path98" class="st1" d="M376.8,399v35.3s12.1-4,13.1-7.1c0-6.1-2-28.3-13.1-28.3"/>
      <path id="path100" class="st1" d="M348.5,422.2s14.1,9.1,22.2,13.1c-1,2-7.1,9.1-9.1,9.1-2-1-12.1-15.1-13.1-22.2"/>
      <path id="polygon102" class="st1" d="M280.9,435.3h18.2v7.1h-17.2l-1-7.1Z"/>
      <path id="polygon104" class="st1" d="M487.8,432.3h-79.8l13.1,10.1h66.6v-10.1Z"/>
      <path id="path106" class="st1" d="M392.9,431.3c1-1,10.1,6.1,8.1,7.1-3,1-27.3,12.1-29.3,11.1-2-1-2-7.1,1-8.1,2-1,16.2-5,20.2-10.1"/>
      <path id="path108" class="st1" d="M365.7,448.5c-3-2-19.2,14.1-12.1,15.1,7.1,1,24.2,4,28.3,6.1,4-2,8.1-5,7.1-7.1,3,0,7.1,4,11.1,3,4-2,23.2-16.2,24.2-18.2-4-3-12.1-8.1-16.2-8.1s-29.3,15.1-42.4,9.1"/>
      <path id="path110" class="st1" d="M357.6,467.6c2,0,22.2,8.1,27.3,7.1s6.1-6.1,9.1-6.1,4,3,9.1,0c5-3,13.1-10.1,15.1-12.1,0,3,0,12.1-18.2,20.2-18.2,8.1-61.6,20.2-62.6,26.2,2,1,7.1-1,11.1-3,2,2,6.1,7.1,5,17.2-1,9.1-8.1,25.2-8.1,29.3v26.2c0,2,4,13.1-2,12.1-5-1-9.1-1-11.1-1s-6.1,4-10.1,3c-4-1-10.1-2-10.1-4s4-2,8.1-3c4-1,6.1-5,13.1-8.1,0-5-2-39.4-2-46.4s-2-22.2,1-28.3c1-6.1,17.2-29.3,25.2-29.3"/>
      <path id="path112" class="st1" d="M383.8,488.8c0,2,12.1,33.3,18.2,34.3,5,1,56.5-10.1,66.6-7.1,3,4,9.1,11.1,9.1,16.2,0,0,1,10.1,0,11.1,2,0,6.1-1,7.1-4,1-3,0-16.2,1-19.2,0-2,6.1-15.1-2-14.1-8.1,0-32.3,0-40.4-2s-25.2-5-29.3-3c-4,2-9.1,9.1-9.1,11.1-2,0-2-1-1-7.1,2-5,8.1-21.2,7.1-29.3-6.1,0-27.3,13.1-27.3,13.1"/>
      <path id="path114" class="st1" d="M354.6,439.4c1,1,1,4,3,5l-41.4-3s-5-3-3-4l41.4,2Z"/>
      <path id="path116" class="st1" d="M309.1,435.3h41.4s-3-5-4-8.1c-7.1,0-38.4,1-38.4,1,0,0-4,0-4,8.1-1,2,3,5,5-1"/>
      <path id="path118" class="st1" d="M269.8,442.4h8.1s3-1,0-4c-3-3-8.1-5-4-11.1-4-1-10.1-2-9.1,11.1h-4s-1-7.1-11.1-7.1-33.3,10.1-33.3,10.1c0,0,26.2,7.1,33.3,7.1s11.1-6.1,11.1-6.1h3s1,5,3,7.1v8.1s-4,1-3,6.1c1,4,4,4,4,4,1,0,2-1,5-1,2-2,1-7.1-3-9.1v-6.1s3-2,3-4-3-2-3-5"/>
      <path id="path120" class="st1" d="M319.2,482.8c3-2,4-6.1,4-6.1v-24.2c0-6.1-10.1-10.1-11.1-10.1h-1c-1,1-4,3-6.1,3-3,0-4,0-7.1-3-8.1,0-12.1,10.1-13.1,10.1,0,2-1,19.2,0,22.2s3,5,4,6.1c-2,6.1-10.1,38.4,1,42.4v5h28.3v-6.1c10.1-4,3-31.3,1-39.4M287.9,452.5c1-1,4-9.1,10.1-9.1,3,3,5,3,8.1,3s5-2,7.1-3c3,1,9.1,4,9.1,8.1v24.2c0,1-1,3-3,4h-5v-10.1h-19.2v10.1h-4c-1-1-3-3-3-5-1-2-1-14.1,0-22.2M307.1,519.1h-5c-1,0-2-1-2-2s1-2,2-2h5c1,0,2,1,2,2s-1,2-2,2M317.2,521.1l-13.1-15.1-12.1,15.1c-8.1-3-3-28.3,0-39.4h26.2c2,11.1,7.1,35.3-1,39.4"/>
      <path id="path122" class="st1" d="M313.2,492.9c3-4-1-7.1-1-7.1h-16.2c-5,0-3,7.1-3,7.1l10.1,9.1s7.1-4,10.1-9.1"/>
      <path id="path124" class="st1" d="M307.1,503l10.1,12.1s-1-14.1-1-18.2c-3,0-9.1,6.1-9.1,6.1"/>
      <path id="path126" class="st1" d="M292,496.9c0,5-1,18.2-1,18.2l10.1-12.1s-6.1-6.1-9.1-6.1"/>
      <path id="path128" class="st1" d="M311.2,466.6h2v-2c0-1-1-2-2-2h-15.1c-1,0-2,1-2,2v2h17.2Z"/>
      <path id="path130" class="st1" d="M288.9,530.2h-2v2c0,1,1,2,2,2h29.3c1,0,2-1,2-2v-2h-31.3Z"/>
    </g>
  </g>
</svg>