<?xml version="1.0" encoding="UTF-8"?>
<svg id="Layer_1" xmlns="http://www.w3.org/2000/svg" version="1.1" viewBox="0 0 512 512">
  <!-- Generator: Adobe Illustrator 29.3.1, SVG Export Plug-In . SVG Version: 2.1.0 Build 151)  -->
  <defs>
    <style>
      .st0 {
        fill: #fff;
      }

      .st1, .st2 {
        fill: #25d366;
      }

      .st2 {
        stroke: #fff;
        stroke-width: 26px;
      }
    </style>
  </defs>
  <rect class="st1" x="24.8" y="24.8" width="462.4" height="462.4" rx="76.8" ry="76.8"/>
  <path class="st2" d="M138.1,381l12.6-58.7c-36.9-58.1-19.6-135.1,38.5-172,58.1-36.9,135.1-19.6,172,38.5,36.9,58.1,19.6,135.1-38.5,172-38.4,24.3-87,25.8-126.8,3.9l-57.8,16.3Z"/>
  <path class="st0" d="M295.5,273c-2.7-1.8-5.4-2.7-8.1.9l-10.8,14.5c-2.7,1.8-4.5,2.7-8.1.9-13.5-7.2-32.5-15.4-48.8-42.4-.9-3.6.9-5.4,2.7-7.2l8.1-12.6c1.8-1.8.9-3.6,0-5.4l-10.8-26.2c-2.7-7.2-5.4-6.3-8.1-6.3h-7.2c-1.8,0-5.4.9-9,4.5-19.9,19.9-11.7,47.9,2.7,65.9,2.7,3.6,20.8,36.1,59.6,53.3,28.9,12.6,35.2,10.8,43.4,9,9.9-.9,19.9-9,24.4-17.2.9-2.7,5.4-14.5,1.8-16.3"/>
</svg>